<svg xmlns="http://www.w3.org/2000/svg" xmlns:xlink="http://www.w3.org/1999/xlink" id="businessforecasting" x="0px" y="0px" viewBox="0 0 1440 1024" style="enable-background:new 0 0 1440 1024;" xml:space="preserve">
<style type="text/css">
	.st0{fill:#BDDEFF;}
	.st1{fill:#FFFFFF;}
	.st2{fill:#5D98D1;}
	.st3{fill:#73B9FF;}
	.st4{fill:#F1C8B7;}
	.st5{fill:#287FC2;}
	.st6{fill:#115A97;}
	.st7{fill:#0085C8;}
	.st8{fill:#48313E;}
	.st9{fill:#025B8B;}
	.st10{fill:#E6968E;}
	.st11{fill:#06A4C9;}
	.st12{fill:#0698BA;}
	.st13{fill:#6A5262;}
	.st14{fill:#9ECFFF;}
	.st15{fill:#058BAB;}
	.st16{fill:#0596B8;}
	.st17{opacity:0.07;}
</style>
<g id="all">
	<g>
		<path class="st0" d="M425.19,498.28l-159.12,0c-1.66,0-3-1.34-3-3l0-200.54c0-1.66,1.34-3,3-3l159.12,0c1.66,0,3,1.34,3,3    l0,200.54C428.19,496.93,426.84,498.28,425.19,498.28z"></path>
		<g>
			<g>
				<path class="st1" d="M410.72,306.2l-130.19,0c-1.66,0-3,1.34-3,3l0,171.62c0,1.66,1.34,3,3,3l108.24,0l24.95-24.95l0-149.66      C413.72,307.54,412.38,306.2,410.72,306.2z"></path>
				<path class="st2" d="M388.77,483.81l24.95-24.95l-21.95,0c-1.66,0-3,1.34-3,3L388.77,483.81z"></path>
			</g>
			<g>
				<g>
					<g>
						<path class="st0" d="M378.56,447.88l-48.49,0c-1.01,0-1.83-0.82-1.83-1.83l0,0c0-1.01,0.82-1.83,1.83-1.83l48.49,0        c1.01,0,1.83,0.82,1.83,1.83l0,0C380.4,447.06,379.58,447.88,378.56,447.88z"></path>
						<path class="st0" d="M369.39,458.89l-39.32,0c-1.01,0-1.83-0.82-1.83-1.83l0,0c0-1.01,0.82-1.83,1.83-1.83l39.32,0        c1.01,0,1.83,0.82,1.83,1.83l0,0C371.23,458.07,370.41,458.89,369.39,458.89z"></path>
					</g>
					<g>
						<path class="st3" d="M314.53,462.56l-14.68,0c-2.03,0-3.67-1.64-3.67-3.67l0-14.68c0-2.03,1.64-3.67,3.67-3.67l14.68,0        c2.03,0,3.67,1.64,3.67,3.67l0,14.68C318.19,460.92,316.55,462.56,314.53,462.56z"></path>
					</g>
				</g>
				<g>
					<g>
						<path class="st0" d="M393.24,415.32l-63.17,0c-1.01,0-1.83-0.82-1.83-1.83v0c0-1.01,0.82-1.83,1.83-1.83l63.17,0        c1.01,0,1.83,0.82,1.83,1.83l0,0C395.08,414.5,394.25,415.32,393.24,415.32z"></path>
						<path class="st0" d="M384.07,426.33l-54,0c-1.01,0-1.83-0.82-1.83-1.83l0,0c0-1.01,0.82-1.83,1.83-1.83l54,0        c1.01,0,1.83,0.82,1.83,1.83l0,0C385.9,425.51,385.08,426.33,384.07,426.33z"></path>
					</g>
					<g>
						<path class="st2" d="M314.53,430l-14.68,0c-2.03,0-3.67-1.64-3.67-3.67l0-14.68c0-2.03,1.64-3.67,3.67-3.67l14.68,0        c2.03,0,3.67,1.64,3.67,3.67l0,14.68C318.19,428.36,316.55,430,314.53,430z"></path>
						<path class="st1" d="M305.42,424.24c-0.4,0-0.81-0.16-1.11-0.47l-3.83-3.95c-0.59-0.61-0.58-1.59,0.03-2.18        c0.61-0.59,1.59-0.58,2.18,0.03l2.8,2.89l7.22-6.43c0.64-0.57,1.61-0.51,2.18,0.13c0.57,0.64,0.51,1.61-0.13,2.18l-8.32,7.41        C306.15,424.11,305.79,424.24,305.42,424.24z"></path>
					</g>
				</g>
				<g>
					<g>
						<path class="st0" d="M378.56,382.76l-48.49,0c-1.01,0-1.83-0.82-1.83-1.83l0,0c0-1.01,0.82-1.83,1.83-1.83l48.49,0        c1.01,0,1.83,0.82,1.83,1.83v0C380.4,381.94,379.58,382.76,378.56,382.76z"></path>
						<path class="st0" d="M369.39,393.77l-39.32,0c-1.01,0-1.83-0.82-1.83-1.83l0,0c0-1.01,0.82-1.83,1.83-1.83l39.32,0        c1.01,0,1.83,0.82,1.83,1.83l0,0C371.23,392.95,370.41,393.77,369.39,393.77z"></path>
					</g>
					<g>
						<path class="st3" d="M314.53,397.44l-14.68,0c-2.03,0-3.67-1.64-3.67-3.67l0-14.68c0-2.03,1.64-3.67,3.67-3.67l14.68,0        c2.03,0,3.67,1.64,3.67,3.67l0,14.68C318.19,395.8,316.55,397.44,314.53,397.44z"></path>
						<path class="st1" d="M305.42,391.68c-0.4,0-0.81-0.16-1.11-0.47l-3.83-3.95c-0.59-0.61-0.58-1.59,0.03-2.18        c0.61-0.59,1.59-0.58,2.18,0.03l2.8,2.89l7.22-6.43c0.64-0.57,1.61-0.51,2.18,0.13c0.57,0.64,0.51,1.61-0.13,2.18l-8.32,7.41        C306.15,391.55,305.79,391.68,305.42,391.68z"></path>
					</g>
				</g>
				<g>
					<g>
						<path class="st0" d="M393.24,350.2l-63.17,0c-1.01,0-1.83-0.82-1.83-1.83l0,0c0-1.01,0.82-1.83,1.83-1.83l63.17,0        c1.01,0,1.83,0.82,1.83,1.83l0,0C395.08,349.38,394.25,350.2,393.24,350.2z"></path>
						<path class="st0" d="M384.07,361.21l-54,0c-1.01,0-1.83-0.82-1.83-1.83l0,0c0-1.01,0.82-1.83,1.83-1.83l54,0        c1.01,0,1.83,0.82,1.83,1.83l0,0C385.9,360.39,385.08,361.21,384.07,361.21z"></path>
					</g>
					<g>
						<path class="st2" d="M314.53,364.88l-14.68,0c-2.03,0-3.67-1.64-3.67-3.67l0-14.68c0-2.03,1.64-3.67,3.67-3.67l14.68,0        c2.03,0,3.67,1.64,3.67,3.67l0,14.68C318.19,363.23,316.55,364.88,314.53,364.88z"></path>
						<path class="st1" d="M305.42,359.12c-0.4,0-0.81-0.16-1.11-0.47l-3.83-3.95c-0.59-0.61-0.58-1.59,0.03-2.18        c0.61-0.59,1.59-0.58,2.18,0.03l2.8,2.89l7.22-6.43c0.64-0.57,1.61-0.51,2.18,0.13c0.57,0.64,0.51,1.61-0.13,2.18l-8.32,7.41        C306.15,358.99,305.79,359.12,305.42,359.12z"></path>
					</g>
				</g>
			</g>
			<path class="st2" d="M370.58,330.62h-49.9c-1.42,0-2.57-1.15-2.57-2.57l0,0c0-1.42,1.15-2.57,2.57-2.57h49.9     c1.42,0,2.57,1.15,2.57,2.57l0,0C373.15,329.47,372,330.62,370.58,330.62z"></path>
		</g>
	</g>
	<g>
		<path class="st4" d="M646.93,600.08c-0.25-0.18-10.38-6.6-16.77-3.68c-5.14,2.35-22.28,13.22-16.53,16.81    c6.08,3.79,16.02-7.42,22.08-7.67c6.07-0.26,10.65,1.23,10.65,1.23L646.93,600.08z"></path>
		<path class="st4" d="M832.84,670.46c0,0,0.52,7.18,3.25,11.61c3.25,5.26,2.01,8.98-2.17,11.77c-4.18,2.79-2.34,12.73-7.76,10.73    c-4.32-1.6-1.43-36.74-1.43-36.74S831.44,668.6,832.84,670.46z"></path>
		<path class="st5" d="M772.46,841.02c0,0,3.72,9.39,6.81,15.89c2.5,5.25-1.65,8.26-3.41,8.26c-1.75,0-42.01,0-42.01,0    s-1.44-4.95,4.95-7.43c6.4-2.48,12.69-1.86,17.91-5.57c5.21-3.72,3.56-11.15,3.56-11.15l1.86-5.37h7.84L772.46,841.02z"></path>
		<path class="st5" d="M829.84,835.65c0,0,3.72,9.39,6.81,15.89c2.5,5.25-1.65,8.26-3.41,8.26c-1.75,0-42.01,0-42.01,0    s-1.44-4.95,4.95-7.43c6.4-2.48,12.69-1.86,17.91-5.57c5.21-3.72,3.56-11.15,3.56-11.15l1.86-5.37h7.84L829.84,835.65z"></path>
		<path class="st6" d="M773.7,648.01c0,0,6.49,50.62,16.1,76.17c9.08,24.15,12.18,23.33,19.35,40.25    c4.84,11.41,18.89,64.25,19.97,70.29c-3.87,0.93-11.46,0.93-11.46,0.93s-12.59-28.28-21.88-44.17    c-9.29-15.89-24.72-45.85-28.9-56.35c-4.61-11.57-17.34-43.14-17.34-43.14s1.9,26.96,11.77,50.57    c10.53,25.18,11.15,98.46,11.15,98.46h-12.18c0,0,0.1-17.44-7.84-39.84c-8.78-24.75-16.21-47.62-22.29-73.28    c-9.86-41.57-9.86-89.02-9.86-89.02l8.41-6.76l40.05,9.7L773.7,648.01z"></path>
		<path class="st4" d="M723.33,446.75c0,0-0.95,15.48,1.24,24.77c1.82,7.7,5.57,10.08,8.26,10.11c3.92,0.05,6.95-4.56,8.46-3.51    c2.37,1.65,2.58,8.57,1.65,15.48c14.24-2.27,15.89-5.06,15.89-5.06s-5.4-27.93-7.22-39.94    C749.55,434.98,733.24,439.73,723.33,446.75z"></path>
		<path class="st7" d="M725.28,516.25c0,0-7.88,36.33-17.66,56.94c-7.67,16.16-23.36,16.35-40.86,19.28    c-17.93,3.01-23.07,2.42-24.12,6.67c-1.19,4.82-0.33,10.3,7.04,10.89c7.38,0.59,32.35,0.31,50.76-2.36    c12.79-1.85,29.94-8.87,36.08-27.65c6.14-18.78,16.51-43.67,16.51-43.67L725.28,516.25z"></path>
		<path class="st7" d="M773.7,505.27c0.28-10.53-6.19-21.06-16.04-22.87c-6.16-1.13-18.36,3.14-22.53,19.34    c-16.34,63.38-14.84,137.13-14.84,137.13l53.41,9.13C773.7,648.01,773.42,515.8,773.7,505.27z"></path>
		<path class="st6" d="M762.64,484.19c0,0,6.9,4.74,0.83,14.73c-13.62,22.45-7.36,114.1-2.58,134.26    c8.77,5.23,36.64,12.04,36.64,12.04s-6.5-29.42-6.81-59.76s4.64-75.55,4.64-75.55S783.61,492.27,762.64,484.19z"></path>
		<path class="st6" d="M741.98,488.72c0,0-11.87,3.64-19.88,37.09c-12.38,51.63-27.25,109.61-27.25,109.61s13.21,1.65,25.4-2.23    C727.05,571.43,741.98,488.72,741.98,488.72z"></path>
		<path class="st7" d="M795.37,509.92c0,0-19.81,9-11.69,32.59c8.12,23.59,25.17,41.45,31.51,64.95c6.97,25.85,6.8,69.2,6.8,69.2    l15.8-0.16c0,0,2.22-73.94-2.48-95.06C826.95,543.82,795.37,509.92,795.37,509.92z"></path>
		<path class="st8" d="M746.5,457.02c-1.62-4.32-5.32-5.78-9.96-5.78s-18.99,1.6-21.21-1.75c-2.3-3.47,3.67-8.69,12.85-13.11    c10.45-5.03,19.74-7.63,25.47-3.45c5.73,4.18,6.65,10.11,7.12,20.02c0.46,9.91-1.06,15.02-5.86,15.48    C750.11,468.89,749.29,464.45,746.5,457.02z"></path>
	</g>
	<g>
		<g>
			<g>
				<g>
					<g>
						<g>
							<path class="st2" d="M416.77,910.24V783.15h-6.63v127.09c0,0.52,0.42,0.94,0.94,0.94h4.76         C416.35,911.18,416.77,910.76,416.77,910.24z"></path>
						</g>
					</g>
					<g>
						<g>
							<path class="st2" d="M511.73,910.24V783.15h-6.63v127.09c0,0.52,0.42,0.94,0.94,0.94h4.76         C511.31,911.18,511.73,910.76,511.73,910.24z"></path>
						</g>
					</g>
				</g>
				<g>
					<path class="st9" d="M514.46,789.18H407.4c-3.33,0-6.03-2.7-6.03-6.03l0,0c0-3.33,2.7-6.03,6.03-6.03h107.06       c3.33,0,6.03,2.7,6.03,6.03l0,0C520.49,786.48,517.79,789.18,514.46,789.18z"></path>
				</g>
			</g>
		</g>
		<g>
			<g>
				<path class="st10" d="M553.84,679.35c-4.33-1.04-7.33,0.1-9.95,2.22c-1.63,1.32-3.7,2.88-5.77,2.56l-42.72-7.41      c0,0-14.43-16.86-15.94-18.2c-8.04-1.34-11.66,12.35-11.66,12.35l15.22,14.35c2.11,1.99,4.85,3.2,7.74,3.43      c0,0,47.31,3.61,52.02,2.53c4.71-1.07,4.47-3.25,7.73-4c2.91-0.66,5.02,1.06,9.42,0.05C563.62,686.4,559.45,680.7,553.84,679.35      z"></path>
				<path class="st11" d="M484.58,661.38c-2.55-3.41-20.57-27.33-27.71-31.07c-8.67-4.54-20.02,1.18-12.76,17.49      c3.82,8.59,15.46,19.4,24.84,28.11C473.87,673.41,480.96,668.07,484.58,661.38z"></path>
			</g>
			<g>
				<path class="st12" d="M455.4,732.87c0,0-11.92,29.07,0,42.04c11.92,12.97,70.5,19.57,71.64,16.62      c-5.24,16.13-9.49,34.51-13.41,51.51c-6.23,27.08-8.84,61.9-8.84,61.9h6.83l39.42-120.19c1.52-4.64,1.01-10.81-4.2-14.44      C503.04,739.81,455.4,732.87,455.4,732.87z"></path>
				<path class="st6" d="M538.76,911.18c0,0-7.03-14.67-33.52-12.47c-7.08,3.43-4.67,12.47-4.67,12.47H538.76z"></path>
			</g>
			<g>
				<path class="st11" d="M455.4,732.87h-47.63c0,0-6.99,26.27,3.92,40.1c12.06,15.27,67.36,21.66,67.37,21.67      c-5.47,16.87-9.26,33.46-13.05,48.41c-6.83,26.93-8.84,61.9-8.84,61.9H464c0,0,34.12-94.64,39.42-110.76      c4.34-13.18,2.54-16.49-5.71-26.45C486.06,753.68,455.4,732.87,455.4,732.87z"></path>
				<path class="st6" d="M491.13,911.18c0,0-7.03-14.67-33.52-12.47c-7.08,3.43-4.67,12.47-4.67,12.47H491.13z"></path>
			</g>
			<path class="st10" d="M464.47,577.36c0,0,4.08,21.87,0.92,28.49c-2.71,5.67-6.09,5.86-14.4-0.87l-0.9,27.63l-14.37-6.98     l1.72-38.08C437.45,587.55,448.55,564.06,464.47,577.36z"></path>
			<path class="st0" d="M453.56,616.78l2.56,12.15c0,0,17.07,5.49,20.95,45.43c3.92,40.35,15.66,68.5,15.66,68.5     s-9.49,8.21-41.57,7.19c-32.79-1.05-51.13,6.03-51.13,6.03s2.34-21.24,6.63-49.81c5.08-33.77,0.71-56.32,2.61-64.62     c3.94-17.17,22.88-19.65,22.88-19.65v-8.44L453.56,616.78z"></path>
			<g>
				<path class="st10" d="M520.12,710.75c-4.31-2.14-7.74-1.66-11-0.05c-2.03,1-4.58,2.14-6.68,1.31l-43.16-18.04      c0,0-11.14-21.19-12.41-22.96c-8.14-3.34-15.22,10.2-15.22,10.2l12.57,18.74c1.75,2.6,4.33,4.53,7.32,5.46      c0,0,48.9,15.13,54.11,15.13c5.21,0,5.48-2.35,9.09-2.35c3.22,0,5.03,2.31,9.9,2.31C528.72,720.5,525.7,713.51,520.12,710.75z"></path>
				<path class="st11" d="M451.57,675.24c-1.86-4.2-15.09-33.69-21.7-39.33c-8.03-6.85-21.34-3.56-17.62,15.34      c1.96,9.95,11.61,24.12,19.4,35.53C437.42,685.32,446.16,681.4,451.57,675.24z"></path>
			</g>
			<path class="st13" d="M464.47,577.36c-3.44,0.73-12.28,1.18-15.6,6.09c-2.49,3.68-5.78,23.77-6.38,31.56     c-2.36,30.76-36.43,20.81-36.43,20.81s7.08-61.75,27.33-74.16c9.98-6.12,29.24-4.92,33.2-1.51     C469.56,562.73,471.18,575.94,464.47,577.36z"></path>
		</g>
		<g id="desk">
			<g>
				<path class="st9" d="M611.67,723.96l21.85-62.91c0.33-0.95-0.37-1.93-1.37-1.93h-62.95c-1.52,0-2.87,0.96-3.37,2.4l-20.5,59.04      h-50.78c-1.94,0-3.67,1.45-3.77,3.38c-0.11,2.06,1.53,3.77,3.57,3.77h113.77c1.04,0,3.58-0.4,3.58-3.58      C611.69,724.07,611.67,724.02,611.67,723.96z"></path>
				
					<ellipse transform="matrix(0.6595 -0.7517 0.7517 0.6595 -320.0805 680.2061)" class="st1" cx="590.79" cy="693.41" rx="7.22" ry="5.28"></ellipse>
			</g>
			<g>
				<g>
					<g>
						<path class="st7" d="M655.06,920.07h-7.5c-0.52,0-0.94-0.42-0.94-0.94V732.62h9.38v186.52        C655.99,919.65,655.57,920.07,655.06,920.07z"></path>
						<rect x="646.61" y="732.62" class="st6" width="9.38" height="26.11"></rect>
					</g>
					<path class="st7" d="M341.48,920.07h-7.5c-0.52,0-0.94-0.42-0.94-0.94V732.62h9.38v186.52       C342.42,919.65,342,920.07,341.48,920.07z"></path>
					<rect x="333.04" y="732.62" class="st6" width="9.38" height="26.11"></rect>
				</g>
				<path class="st7" d="M666.33,739.35H322.71c-1.55,0-2.81-1.26-2.81-2.81v-6.02c0-1.55,1.26-2.81,2.81-2.81h343.62      c1.55,0,2.81,1.26,2.81,2.81v6.02C669.14,738.09,667.88,739.35,666.33,739.35z"></path>
			</g>
		</g>
	</g>
	<g>
		<path class="st0" d="M723.12,407.4c-8.29-14.67-11.12-24.77-10.39-35.78c0.12-0.11,34.07-12.53,34.07-41.56    c0-27.72-27.74-50.19-74.82-50.19c-41.32,0-72.94,22.54-74.82,50.19c-4.71,69.13,94.58,48.21,94.63,48.35    C697.62,392.13,704.86,401.77,723.12,407.4z"></path>
		<g>
			<g>
				<path class="st2" d="M714.54,352.4c-28.37-22.84-56.74,25.59-85.11,2.75c-0.89-0.71-1.61-2.1-1.61-2.99c0-14.73,0-29.47,0-44.2      c0-0.89,0.72-0.95,1.61-0.24c28.37,22.84,56.74-25.59,85.11-2.75c0.89,0.71,1.61,2.1,1.61,2.99c0,14.73,0,29.47,0,44.2      C716.15,353.06,715.43,353.12,714.54,352.4z"></path>
				<path class="st3" d="M711.75,315.09c-4.06-3.07-7.28-6.98-7.73-11.18c-0.06-0.55-0.53-1.12-1.07-1.24      c-20.65-4.42-41.29,18.62-61.94,14.2c-0.54-0.12-1.01,0.2-1.07,0.73c-0.45,3.91-3.67,6.45-7.73,4.28      c-0.54-0.29-0.98-0.14-0.98,0.41c0,3.81,0,17.23,0,21.03c0,0.54,0.44,1.32,0.98,1.73c4.06,3.07,7.28,6.98,7.73,11.18      c0.06,0.55,0.53,1.12,1.07,1.24c20.65,4.42,41.29-18.62,61.94-14.2c0.54,0.12,1.01-0.2,1.07-0.73c0.45-3.91,3.67-6.45,7.73-4.28      c0.54,0.29,0.98,0.14,0.98-0.41c0-3.81,0-17.23,0-21.03C712.73,316.28,712.29,315.5,711.75,315.09z"></path>
			</g>
			<g>
				<path class="st1" d="M689.27,323.46c0,9.41-7.74,19.3-17.29,23.89c-9.55,4.59-17.29-1-17.29-10.69c0-9.41,7.74-19.3,17.29-23.89      C681.53,308.19,689.27,313.78,689.27,323.46z"></path>
				<path class="st1" d="M704.86,323.45c0,2.61-2.11,4.04-4.72,3.8c-2.61-0.26-4.72-2.16-4.72-4.78c0-2.6,2.11-4.93,4.72-4.67      C702.74,318.05,704.86,320.85,704.86,323.45z"></path>
				<path class="st1" d="M639.11,336.68c0,2.6,2.11,5.4,4.72,5.65c2.61,0.26,4.72-2.07,4.72-4.67c0-2.62-2.11-4.52-4.72-4.78      C641.22,332.64,639.11,334.07,639.11,336.68z"></path>
				<g>
					<path class="st14" d="M671.86,342.9c-0.67,0.3-1.25,0.02-1.25-0.61c0-0.67,0-1.35,0-2.02c-2.47,0.72-4.38-0.04-5.1-1.99       c-0.06-0.2-0.1-0.4-0.1-0.6c0-0.98,0.79-1.83,1.58-2.17c0.67-0.29,1.24-0.1,1.45,0.49c0.32,1.03,1.65,1.61,3.58,0.74       c2.23-1.01,3.4-2.86,3.4-4.18c0.02-1.33-0.93-1.81-2.89-1.42c-0.8,0.16-1.6,0.33-2.39,0.49c-3.17,0.64-4.78-0.44-4.78-3.09       c0-2.78,2.16-5.92,5.25-7.77c0-0.56,0-1.13,0-1.69c0-0.63,0.59-1.44,1.25-1.74c0.67-0.3,1.25-0.02,1.26,0.61       c0,0.58,0,1.15,0,1.73c2.36-0.65,4.06,0.08,4.67,1.99c0.06,0.19,0.09,0.42,0.09,0.67c0,0.92-0.59,1.72-1.58,2.15       c-0.75,0.33-1.29,0.16-1.48-0.45c-0.38-1.27-1.44-1.53-3.15-0.76c-1.54,0.7-3.13,2.33-3.13,3.87c0,0.72,0.25,1.64,2.38,1.19       c0.81-0.17,1.62-0.33,2.42-0.5c3.4-0.7,5.27,0.45,5.27,3.11c0,3.08-2.19,6.34-5.47,8.25c0,0.65,0,1.31,0,1.96       C673.14,341.82,672.47,342.63,671.86,342.9z"></path>
				</g>
			</g>
		</g>
	</g>
	<g>
		<path class="st0" d="M485.75,584.02c14.21-10,24.16-19.19,26.61-32.16c-0.12-0.11-32.8-11.46-32.8-40.49    c0-27.72,27.74-50.19,74.82-50.19c41.32,0,71.5,18.08,74.82,50.19c7.14,68.92-94.56,48.22-94.63,48.35    C526.23,574.77,503.43,582.76,485.75,584.02z"></path>
		<g>
			<g>
				<g>
					<path class="st1" d="M547,491.98c1.13,1.17,2.15,2.44,3.04,3.76c0.27,0.4,0.14,0.94-0.28,1.17l-9.18,5.17       c-0.36,0.2-0.81,0.11-1.05-0.22c-0.39-0.52-0.81-1.02-1.26-1.49c-0.99-1.03-2.08-1.9-3.25-2.6c-0.35-0.21-0.49-0.65-0.33-1.03       l4.25-9.65c0.19-0.44,0.72-0.62,1.14-0.39C542.63,488.08,544.95,489.85,547,491.98z"></path>
					<g>
						<path class="st3" d="M536.46,486.03l-4.25,9.65c-0.17,0.38-0.58,0.57-0.98,0.45c-4.66-1.37-9.83-0.55-13.92,2.47        c-0.33,0.24-0.79,0.2-1.07-0.09l-7.31-7.62c-0.33-0.35-0.29-0.9,0.08-1.2c7.56-6.2,17.73-8,26.97-4.76        C536.44,485.08,536.66,485.59,536.46,486.03z"></path>
					</g>
					<g>
						<path class="st2" d="M515.26,522.46c3.11,3.24,7.26,4.88,11.41,4.9c0.41,0,0.75,0.31,0.8,0.71l1.29,10.44        c0.06,0.47-0.3,0.9-0.78,0.92c-8.08,0.36-15.8-2.69-21.48-8.6c-10.18-10.61-10.35-27.24-0.72-38.04        c0.32-0.36,0.87-0.37,1.2-0.02l7.31,7.62c0.28,0.3,0.3,0.76,0.05,1.08C509.39,507.6,509.65,516.61,515.26,522.46z"></path>
					</g>
					<g>
						<path class="st3" d="M551.09,499.28c0.42-0.24,0.95-0.06,1.15,0.37c4.99,10.77,2.64,23.65-6.06,32        c-3.86,3.7-8.59,6.18-13.76,7.24c-0.47,0.1-0.92-0.23-0.98-0.7l-1.29-10.44c-0.05-0.41,0.21-0.79,0.6-0.89        c2.57-0.66,5.01-1.97,7.06-3.93c4.83-4.64,6.11-11.6,3.75-17.46c-0.15-0.38,0-0.81,0.36-1.01L551.09,499.28z"></path>
					</g>
				</g>
			</g>
			<g>
				<g>
					<circle class="st2" cx="567.92" cy="488.37" r="3.28"></circle>
					<rect x="574.93" y="487.36" class="st1" width="30.63" height="2.01"></rect>
				</g>
				<g>
					<circle class="st2" cx="567.92" cy="503.78" r="3.28"></circle>
					<rect x="574.93" y="502.77" class="st1" width="24.07" height="2.01"></rect>
				</g>
				<g>
					<circle class="st2" cx="567.92" cy="519.19" r="3.28"></circle>
					<rect x="574.93" y="518.18" class="st1" width="30.63" height="2.01"></rect>
				</g>
				<g>
					<circle class="st2" cx="567.92" cy="534.6" r="3.28"></circle>
					<rect x="574.93" y="533.6" class="st1" width="17.5" height="2.01"></rect>
				</g>
			</g>
		</g>
	</g>
	<g>
		<g>
			<path class="st4" d="M214.71,449.76c0,0,5.16,21.64,2.34,28.41c-2.42,5.8-5.79,6.15-14.42-0.15l0.48,27.64l-15.4-5.2l0.53-39.18     C188.23,461.28,198.15,437.27,214.71,449.76z"></path>
			<path class="st6" d="M211.18,453.41c-28.51,12.73-21.24,58.9-25.68,69.23c-6.09,14.19-16.78,18.76-28.63,15.78     c-13.27-3.34-21.59-15.17-15.08-32.91c6.73-18.34,30.84-59.36,50.42-70.92C214.78,421.26,222.75,448.25,211.18,453.41z"></path>
		</g>
		<g>
			<g>
				<g>
					<path class="st4" d="M218.7,698.64L203.6,820.8l-6.73,1.17c0,0-4-34.8-1.88-62.5c2.13-27.7,11.54-63.84,11.54-63.84       L218.7,698.64z"></path>
					<path class="st15" d="M229.48,825.44c0,0-7.03-14.67-33.52-12.47c-7.08,3.43-4.67,12.47-4.67,12.47H229.48z"></path>
				</g>
				<g>
					<path class="st4" d="M184.33,692.51l-38.49,126.71h-6.83c0,0,2.01-34.97,8.84-61.9c6.83-26.93,25.27-68.13,25.27-68.13       L184.33,692.51z"></path>
					<path class="st15" d="M172.98,825.44c0,0-7.03-14.67-33.52-12.47c-7.08,3.43-4.67,12.47-4.67,12.47H172.98z"></path>
				</g>
			</g>
			<path class="st6" d="M225.43,586.12c18.42,31.01,15.68,95.82,10.27,126.27c-23.83-8.14-51.72,0-51.72,0l-5.57-15.38l-9.56,19.9     l-27.53-5.43c0,0,28.64-63.31,27.53-133.86C168.36,547.07,207.01,555.11,225.43,586.12z"></path>
		</g>
		<g>
			<path class="st4" d="M153.46,623.36c4.52,4.93-2.85,4.35-2.86,6.71c-0.03,7.74-4.39,11.3-6.95,5.39     c-2.55-5.92,0.08-30.09,4.99-30.1S148.94,618.43,153.46,623.36z"></path>
			<path class="st16" d="M164.86,549.44c0,0,25.54-26.88,27.86-35.95c2.32-9.07-4.59-23.76-21.19-13.99s-32.31,38.04-35.78,52.87     c-3.46,14.82,0.48,48.94,4.17,56.92c3.69,7.98,10.14,9.71,13.36,5.87C158.88,608.51,162.76,566.18,164.86,549.44z"></path>
		</g>
		<path class="st11" d="M207.94,493.58c8.52,2.31,20.76,6.72,23.78,39.36c2.39,25.83,3.98,45.88,3.98,45.88s-8.16,23.52-40.11,20.5    c-31.96-3.01-36.18-13.22-36.18-13.22s-4.21-58.96,2.71-75.42C168.71,494.73,188.21,488.24,207.94,493.58z"></path>
		<g>
			<path class="st17" d="M232.95,546.54c-0.38-4.28-0.79-8.83-1.23-13.59c-0.22-2.37-0.5-4.58-0.84-6.68     c-12.07-3.79-29.48-7.44-52.89-8.1C189.96,533.14,212.36,542.24,232.95,546.54z"></path>
			<g>
				<g>
					<path class="st4" d="M297.13,453.98c0.51-7.51,5.75-1.05,7.68-2.88c6.32-5.98,12.61-5.2,9.78,1.47       c-2.83,6.68-24.54,23.3-28.37,19.32C282.39,467.89,296.62,461.48,297.13,453.98z"></path>
					<path class="st11" d="M228.12,502.1c0,0-25.32-17.56-53.05-5.69c-9.68,4.14-11.56,24.66,9.19,30.89       c29.97,9,54.09,4.9,68.85-3.79s39.45-38.39,43.08-47.6c3.62-9.2,0.03-15.79-5.6-15.43C280.83,461.09,243.38,490.8,228.12,502.1       z"></path>
				</g>
			</g>
		</g>
	</g>
	<g>
		<path class="st0" d="M813.53,378.39l0-271.47c0-1.66,1.34-3,3-3l330.32,0c1.66,0,3,1.34,3,3l0,271.47c0,1.66-1.34,3-3,3l-330.32,0    C814.88,381.39,813.53,380.05,813.53,378.39z"></path>
		<g>
			<g>
				<g>
					<path class="st1" d="M990.73,121.39v109.4c0,1.66,1.34,3,3,3l138.66,0c1.66,0,3-1.34,3-3v-109.4c0-1.66-1.34-3-3-3l-138.66,0       C992.08,118.39,990.73,119.73,990.73,121.39z"></path>
					<path class="st3" d="M1002.49,136.53v-6.1c0-0.28,0.22-0.5,0.5-0.5h44.21c0.28,0,0.5,0.22,0.5,0.5v6.1c0,0.28-0.22,0.5-0.5,0.5       h-44.21C1002.71,137.03,1002.49,136.8,1002.49,136.53z"></path>
				</g>
				<g>
					<g>
						<path class="st2" d="M1004.85,156.83v-2.44c0-0.28,0.22-0.5,0.5-0.5h26.12c0.28,0,0.5,0.22,0.5,0.5v2.44        c0,0.28-0.22,0.5-0.5,0.5h-26.12C1005.07,157.33,1004.85,157.11,1004.85,156.83z"></path>
						<path class="st3" d="M1004.85,175.77v-2.44c0-0.28,0.22-0.5,0.5-0.5h26.12c0.28,0,0.5,0.22,0.5,0.5v2.44        c0,0.28-0.22,0.5-0.5,0.5h-26.12C1005.07,176.27,1004.85,176.05,1004.85,175.77z"></path>
						<path class="st2" d="M1004.85,194.71v-2.44c0-0.28,0.22-0.5,0.5-0.5h26.12c0.28,0,0.5,0.22,0.5,0.5v2.44        c0,0.28-0.22,0.5-0.5,0.5h-26.12C1005.07,195.21,1004.85,194.99,1004.85,194.71z"></path>
						<path class="st3" d="M1004.85,213.65v-2.44c0-0.28,0.22-0.5,0.5-0.5h26.12c0.28,0,0.5,0.22,0.5,0.5v2.44        c0,0.28-0.22,0.5-0.5,0.5h-26.12C1005.07,214.15,1004.85,213.92,1004.85,213.65z"></path>
					</g>
					<g>
						<path class="st2" d="M1105.01,156.83v-2.44c0-0.28,0.22-0.5,0.5-0.5h15.27c0.28,0,0.5,0.22,0.5,0.5v2.44        c0,0.28-0.22,0.5-0.5,0.5h-15.27C1105.23,157.33,1105.01,157.11,1105.01,156.83z"></path>
						<path class="st3" d="M1104.39,213.65v-2.44c0-0.28,0.22-0.5,0.5-0.5h15.89c0.28,0,0.5,0.22,0.5,0.5v2.44        c0,0.28-0.22,0.5-0.5,0.5h-15.89C1104.61,214.15,1104.39,213.92,1104.39,213.65z"></path>
					</g>
					<g>
						<path class="st2" d="M1083.86,156.83v-2.44c0-0.28,0.22-0.5,0.5-0.5h17.53c0.28,0,0.5,0.22,0.5,0.5v2.44        c0,0.28-0.22,0.5-0.5,0.5h-17.53C1084.09,157.33,1083.86,157.11,1083.86,156.83z"></path>
						<path class="st3" d="M1083.86,175.77v-2.44c0-0.28,0.22-0.5,0.5-0.5h16.81c0.28,0,0.5,0.22,0.5,0.5v2.44        c0,0.28-0.22,0.5-0.5,0.5h-16.81C1084.09,176.27,1083.86,176.05,1083.86,175.77z"></path>
						<path class="st2" d="M1092.9,194.71v-2.44c0-0.28,0.22-0.5,0.5-0.5h8.49c0.28,0,0.5,0.22,0.5,0.5v2.44        c0,0.28-0.22,0.5-0.5,0.5h-8.49C1093.13,195.21,1092.9,194.99,1092.9,194.71z"></path>
						<path class="st3" d="M1083.86,213.65v-2.44c0-0.28,0.22-0.5,0.5-0.5h16.81c0.28,0,0.5,0.22,0.5,0.5v2.44        c0,0.28-0.22,0.5-0.5,0.5h-16.81C1084.09,214.15,1083.86,213.92,1083.86,213.65z"></path>
					</g>
					<g>
						<path class="st2" d="M1071.28,156.83v-2.44c0-0.28,0.22-0.5,0.5-0.5h8.87c0.28,0,0.5,0.22,0.5,0.5v2.44        c0,0.28-0.22,0.5-0.5,0.5h-8.87C1071.5,157.33,1071.28,157.11,1071.28,156.83z"></path>
						<path class="st3" d="M1053.2,175.77v-2.44c0-0.28,0.22-0.5,0.5-0.5h26.96c0.28,0,0.5,0.22,0.5,0.5v2.44        c0,0.28-0.22,0.5-0.5,0.5h-26.96C1053.42,176.27,1053.2,176.05,1053.2,175.77z"></path>
						<path class="st2" d="M1062.24,194.71v-2.44c0-0.28,0.22-0.5,0.5-0.5h26.96c0.28,0,0.5,0.22,0.5,0.5v2.44        c0,0.28-0.22,0.5-0.5,0.5h-26.96C1062.46,195.21,1062.24,194.99,1062.24,194.71z"></path>
						<path class="st3" d="M1071.28,213.65v-2.44c0-0.28,0.22-0.5,0.5-0.5h8.87c0.28,0,0.5,0.22,0.5,0.5v2.44        c0,0.28-0.22,0.5-0.5,0.5h-8.87C1071.5,214.15,1071.28,213.92,1071.28,213.65z"></path>
					</g>
					<g>
						<path class="st2" d="M1041.14,156.83v-2.44c0-0.28,0.22-0.5,0.5-0.5h26.42c0.28,0,0.5,0.22,0.5,0.5v2.44        c0,0.28-0.22,0.5-0.5,0.5h-26.42C1041.37,157.33,1041.14,157.11,1041.14,156.83z"></path>
						<path class="st3" d="M1041.14,175.77v-2.44c0-0.28,0.22-0.5,0.5-0.5h8.34c0.28,0,0.5,0.22,0.5,0.5v2.44        c0,0.28-0.22,0.5-0.5,0.5h-8.34C1041.37,176.27,1041.14,176.05,1041.14,175.77z"></path>
						<path class="st2" d="M1041.14,194.71v-2.44c0-0.28,0.22-0.5,0.5-0.5h17.38c0.28,0,0.5,0.22,0.5,0.5v2.44        c0,0.28-0.22,0.5-0.5,0.5h-17.38C1041.37,195.21,1041.14,194.99,1041.14,194.71z"></path>
						<path class="st3" d="M1041.14,213.65v-2.44c0-0.28,0.22-0.5,0.5-0.5h26.42c0.28,0,0.5,0.22,0.5,0.5v2.44        c0,0.28-0.22,0.5-0.5,0.5h-26.42C1041.37,214.15,1041.14,213.92,1041.14,213.65z"></path>
					</g>
				</g>
			</g>
			<g>
				<g>
					<path class="st1" d="M827.99,121.39v109.4c0,1.66,1.34,3,3,3l138.66,0c1.66,0,3-1.34,3-3v-109.4c0-1.66-1.34-3-3-3l-138.66,0       C829.34,118.39,827.99,119.73,827.99,121.39z"></path>
					<path class="st2" d="M839.75,136.53v-6.1c0-0.28,0.22-0.5,0.5-0.5h44.21c0.28,0,0.5,0.22,0.5,0.5v6.1c0,0.28-0.22,0.5-0.5,0.5       h-44.21C839.97,137.03,839.75,136.8,839.75,136.53z"></path>
				</g>
				<g>
					<g>
						<rect x="843.94" y="182.97" class="st0" width="1.12" height="33.5"></rect>
						<rect x="871.39" y="193.93" class="st0" width="1.12" height="22.54"></rect>
						<rect x="898.85" y="172.01" class="st0" width="1.12" height="44.46"></rect>
						<rect x="926.31" y="161.05" class="st0" width="1.12" height="55.42"></rect>
						<rect x="953.77" y="139.13" class="st0" width="1.12" height="77.34"></rect>
					</g>
					<g>
						<path class="st3" d="M954.55,138.5c-9.72,1.7-13.89,6.88-18.29,12.37c-2.64,3.29-5.37,6.69-9.56,9.73        c-4.64,3.37-8.68,4.31-12.96,5.31c-4.34,1.01-8.83,2.06-14.43,5.61c-4.15,2.63-7.2,6.49-10.14,10.22        c-4.56,5.78-8.86,11.24-16.91,11.56c-3.82,0.15-6.91-2.04-10.49-4.59c-4.39-3.12-9.37-6.66-16.97-6.38        c-0.55,0.02-1.09,0.07-1.63,0.13v1.22c0.34-0.03,0.68-0.07,1.02-0.08c7.33-0.28,12.22,3.2,16.52,6.26        c3.52,2.5,6.84,4.87,10.93,4.7c2.7-0.11,5.02-0.75,7.08-1.76c4.71-2.31,8.05-6.54,11.3-10.68c2.8-3.56,5.7-7.24,9.48-9.63        c5.3-3.36,9.64-4.37,13.84-5.35c4.47-1.04,8.69-2.03,13.68-5.65c4.47-3.25,7.45-6.95,10.07-10.22        c4.29-5.34,7.99-9.95,16.99-11.52c0.33-0.06,0.7-0.38,0.83-0.73C955.05,138.68,954.88,138.45,954.55,138.5z"></path>
						<g>
							<ellipse class="st2" cx="844.49" cy="182.97" rx="4.93" ry="4.84"></ellipse>
							<ellipse class="st2" cx="871.95" cy="193.93" rx="4.93" ry="4.84"></ellipse>
							<ellipse class="st2" cx="899.41" cy="172.01" rx="4.93" ry="4.84"></ellipse>
							<ellipse class="st2" cx="926.87" cy="161.05" rx="4.93" ry="4.84"></ellipse>
							<ellipse class="st2" cx="954.33" cy="139.13" rx="4.93" ry="4.84"></ellipse>
						</g>
					</g>
				</g>
			</g>
			<g>
				<g>
					<path class="st1" d="M827.99,254.54v109.4c0,1.66,1.34,3,3,3h138.66c1.66,0,3-1.34,3-3v-109.4c0-1.66-1.34-3-3-3l-138.66,0       C829.34,251.54,827.99,252.88,827.99,254.54z"></path>
					<path class="st3" d="M839.75,269.68v-6.1c0-0.28,0.22-0.5,0.5-0.5h44.21c0.28,0,0.5,0.22,0.5,0.5v6.1c0,0.28-0.22,0.5-0.5,0.5       h-44.21C839.97,270.18,839.75,269.96,839.75,269.68z"></path>
				</g>
				<g>
					<g>
						<path class="st2" d="M958.54,289.98v-2.44c0-0.28-0.22-0.5-0.5-0.5h-21.6c-0.28,0-0.5,0.22-0.5,0.5v2.44        c0,0.28,0.22,0.5,0.5,0.5h21.6C958.31,290.48,958.54,290.26,958.54,289.98z"></path>
						<path class="st3" d="M958.54,308.92v-2.44c0-0.28-0.22-0.5-0.5-0.5h-21.6c-0.28,0-0.5,0.22-0.5,0.5v2.44        c0,0.28,0.22,0.5,0.5,0.5h21.6C958.31,309.42,958.54,309.2,958.54,308.92z"></path>
						<path class="st2" d="M958.54,327.86v-2.44c0-0.28-0.22-0.5-0.5-0.5h-21.6c-0.28,0-0.5,0.22-0.5,0.5v2.44        c0,0.28,0.22,0.5,0.5,0.5h21.6C958.31,328.36,958.54,328.14,958.54,327.86z"></path>
						<path class="st3" d="M958.54,346.8v-2.44c0-0.28-0.22-0.5-0.5-0.5h-21.6c-0.28,0-0.5,0.22-0.5,0.5v2.44        c0,0.28,0.22,0.5,0.5,0.5h21.6C958.31,347.3,958.54,347.07,958.54,346.8z"></path>
					</g>
					<g>
						<ellipse class="st2" cx="927.97" cy="288.76" rx="3.05" ry="3"></ellipse>
						<ellipse class="st3" cx="927.97" cy="307.7" rx="3.05" ry="2.98"></ellipse>
						<ellipse class="st2" cx="927.97" cy="326.64" rx="3.05" ry="2.98"></ellipse>
						<ellipse class="st3" cx="927.97" cy="345.58" rx="3.05" ry="2.98"></ellipse>
					</g>
				</g>
				<g>
					<path class="st2" d="M879.61,339.89c-6.15,0-11.74-2.37-15.89-6.23c-0.19-0.18-0.48-0.18-0.67-0.01l-8.57,7.77       c-0.21,0.19-0.22,0.53-0.02,0.74c6.47,6.27,15.34,10.15,25.15,10.15c11.05,0,20.93-4.92,27.49-12.65       c0.19-0.22,0.14-0.57-0.1-0.74l-9.48-6.73c-0.21-0.15-0.48-0.11-0.65,0.07C892.63,336.94,886.47,339.89,879.61,339.89z"></path>
					<path class="st2" d="M896.93,301.44l8.93-7.37c0.22-0.18,0.25-0.52,0.05-0.74c-6.1-6.48-14.64-10.71-24.2-11.25       c-0.29-0.02-0.53,0.22-0.53,0.51v11.45c0,0.26,0.2,0.47,0.46,0.49c5.72,0.49,10.86,3.03,14.63,6.87       C896.44,301.58,896.73,301.6,896.93,301.44z"></path>
					<path class="st3" d="M907.31,295.72l-8.95,7.39c-0.2,0.17-0.24,0.46-0.08,0.68c2.8,3.76,4.47,8.37,4.47,13.37       c0,4.14-1.14,8.02-3.12,11.36c-0.13,0.22-0.07,0.51,0.14,0.66l9.48,6.73c0.23,0.17,0.56,0.1,0.72-0.14       c3.44-5.4,5.44-11.78,5.44-18.62c0-8.04-2.76-15.44-7.38-21.36C907.86,295.58,907.53,295.54,907.31,295.72z"></path>
					<path class="st3" d="M856.46,317.16c0-11.86,9.31-21.63,21.13-22.64c0.26-0.02,0.46-0.23,0.46-0.49v-11.46       c0-0.29-0.25-0.52-0.53-0.51c-18.8,1.07-33.71,16.37-33.71,35.09c0,8.63,3.18,16.52,8.43,22.64c0.18,0.21,0.51,0.23,0.72,0.04       l8.59-7.79c0.2-0.18,0.22-0.48,0.05-0.68C858.39,327.48,856.46,322.54,856.46,317.16z"></path>
				</g>
			</g>
			<g>
				<g>
					<path class="st1" d="M990.73,254.54v109.4c0,1.66,1.34,3,3,3l138.66,0c1.66,0,3-1.34,3-3v-109.4c0-1.66-1.34-3-3-3H993.73       C992.08,251.54,990.73,252.88,990.73,254.54z"></path>
					<path class="st2" d="M1002.49,269.68v-6.1c0-0.28,0.22-0.5,0.5-0.5h44.21c0.28,0,0.5,0.22,0.5,0.5v6.1c0,0.28-0.22,0.5-0.5,0.5       h-44.21C1002.71,270.18,1002.49,269.96,1002.49,269.68z"></path>
				</g>
				<g>
					<g>
						<path class="st3" d="M1012.09,348.19h-4.46c-0.28,0-0.5-0.22-0.5-0.5v-15.02c0-0.28,0.22-0.5,0.5-0.5h4.46        c0.28,0,0.5,0.22,0.5,0.5v15.02C1012.59,347.96,1012.37,348.19,1012.09,348.19z"></path>
						<path class="st2" d="M1020.26,348.19h-4.46c-0.28,0-0.5-0.22-0.5-0.5v-32.78c0-0.28,0.22-0.5,0.5-0.5h4.46        c0.28,0,0.5,0.22,0.5,0.5v32.78C1020.76,347.96,1020.54,348.19,1020.26,348.19z"></path>
					</g>
					<g>
						<path class="st3" d="M1036.42,348.19h-4.46c-0.28,0-0.5-0.22-0.5-0.5v-15.02c0-0.28,0.22-0.5,0.5-0.5h4.46        c0.28,0,0.5,0.22,0.5,0.5v15.02C1036.92,347.96,1036.7,348.19,1036.42,348.19z"></path>
						<path class="st2" d="M1044.59,348.19h-4.46c-0.28,0-0.5-0.22-0.5-0.5v-50.53c0-0.28,0.22-0.5,0.5-0.5h4.46        c0.28,0,0.5,0.22,0.5,0.5v50.53C1045.09,347.96,1044.87,348.19,1044.59,348.19z"></path>
					</g>
					<g>
						<path class="st3" d="M1060.75,348.19h-4.46c-0.28,0-0.5-0.22-0.5-0.5v-41.65c0-0.28,0.22-0.5,0.5-0.5h4.46        c0.28,0,0.5,0.22,0.5,0.5v41.65C1061.25,347.96,1061.03,348.19,1060.75,348.19z"></path>
						<path class="st2" d="M1068.92,348.19h-4.46c-0.28,0-0.5-0.22-0.5-0.5v-59.41c0-0.28,0.22-0.5,0.5-0.5h4.46        c0.28,0,0.5,0.22,0.5,0.5v59.41C1069.42,347.96,1069.2,348.19,1068.92,348.19z"></path>
					</g>
					<g>
						<path class="st3" d="M1085.09,348.19h-4.46c-0.28,0-0.5-0.22-0.5-0.5V279.4c0-0.28,0.22-0.5,0.5-0.5h4.46        c0.28,0,0.5,0.22,0.5,0.5v68.28C1085.59,347.96,1085.36,348.19,1085.09,348.19z"></path>
						<path class="st2" d="M1093.25,348.19h-4.46c-0.28,0-0.5-0.22-0.5-0.5v-41.65c0-0.28,0.22-0.5,0.5-0.5h4.46        c0.28,0,0.5,0.22,0.5,0.5v41.65C1093.75,347.96,1093.53,348.19,1093.25,348.19z"></path>
					</g>
					<g>
						<path class="st3" d="M1109.42,348.19h-4.46c-0.28,0-0.5-0.22-0.5-0.5v-59.41c0-0.28,0.22-0.5,0.5-0.5h4.46        c0.28,0,0.5,0.22,0.5,0.5v59.41C1109.92,347.96,1109.69,348.19,1109.42,348.19z"></path>
						<path class="st2" d="M1117.58,348.19h-4.46c-0.28,0-0.5-0.22-0.5-0.5v-77.16c0-0.28,0.22-0.5,0.5-0.5h4.46        c0.28,0,0.5,0.22,0.5,0.5v77.16C1118.08,347.96,1117.86,348.19,1117.58,348.19z"></path>
					</g>
				</g>
			</g>
		</g>
	</g>
	<g>
		<g>
			<g>
				<g>
					<path class="st4" d="M1221.3,670.49l15.1,122.16l6.73,1.17c0,0,4-34.8,1.88-62.5c-2.13-27.7-11.54-63.84-11.54-63.84       L1221.3,670.49z"></path>
					<path class="st15" d="M1210.52,797.29c0,0,7.03-14.67,33.52-12.47c7.08,3.43,4.67,12.47,4.67,12.47H1210.52z"></path>
				</g>
				<g>
					<path class="st4" d="M1255.67,664.36l38.49,126.71h6.83c0,0-2.01-34.97-8.84-61.9c-6.83-26.93-25.27-68.13-25.27-68.13       L1255.67,664.36z"></path>
					<path class="st15" d="M1267.02,797.29c0,0,7.03-14.67,33.52-12.47c7.08,3.43,4.67,12.47,4.67,12.47H1267.02z"></path>
				</g>
			</g>
			<path class="st11" d="M1214.57,557.97c-18.42,31.01-15.68,95.82-10.27,126.27c23.83-8.14,51.72,0,51.72,0l5.57-15.38l9.56,19.9     l27.53-5.43c0,0-28.64-63.31-27.53-133.86C1271.64,518.92,1232.99,526.96,1214.57,557.97z"></path>
		</g>
		<path class="st4" d="M1229.39,412.85c0,0-6.47,21.29-4.06,28.21c2.07,5.93,5.4,6.49,14.4,0.72l-2.15,27.56l15.05-5.35l2.49-38.04    C1255.12,425.95,1246.68,401.38,1229.39,412.85z"></path>
		<g>
			<path class="st4" d="M1129.53,476.36c-3.36-5.78-5,1.42-7.26,0.72c-7.39-2.28-12.1,0.81-7.21,5.02     c4.89,4.21,28.74,8.92,30.22,4.24C1146.75,481.65,1132.89,482.14,1129.53,476.36z"></path>
			<path class="st11" d="M1203.48,487.57c0,0,33.28-16.34,42.63-15.84c9.35,0.5,19.43,9.58,5.14,22.5     c-14.29,12.92-44.09,21.37-59.27,20.24c-15.18-1.12-46.56-15.08-53.07-20.99c-6.51-5.91-6.23-12.58-1.61-14.51     C1145.32,475.62,1186.87,484.57,1203.48,487.57z"></path>
		</g>
		<g>
			<path class="st15" d="M1234.47,456.32l-2.41,11.45c0,0-28.53,8.75-27.74,34.68s-0.02,48.24-0.02,48.24s8.16,23.52,40.11,20.5     c31.96-3.01,36.18-13.22,36.18-13.22s3.92-61.25-2.71-77.83c-6.63-16.58-21.85-19.29-21.85-19.29v-8.44L1234.47,456.32z"></path>
			<path class="st17" d="M1257.77,479.34c-17.89,23.21-39.3,50.41-53.24,62.6c-0.1,5.48-0.22,8.74-0.22,8.74s4.15,11.92,18.07,17.7     c6.93-3.29,14.64-8.96,18.59-14.98C1256.16,530.22,1265.85,492.39,1257.77,479.34z"></path>
		</g>
		<g>
			<path class="st4" d="M1144.42,566.98c-7.11-2.47-3.22,4.88-5.66,5.95c-7.98,3.48-9.72,9.57-2.47,9.57s31.04-13.49,28.86-18.57     S1151.53,569.45,1144.42,566.98z"></path>
			<path class="st11" d="M1215.68,522.27c0,0,16.37-38.35,24.71-44.79c8.33-6.44,23.59-6.1,20.89,15.4s-21.89,50.57-35.66,60.75     s-50.76,21.32-60.64,21.06s-14.54-6.15-12.02-11.18C1157.33,554.77,1199.32,531.9,1215.68,522.27z"></path>
		</g>
		<path class="st13" d="M1232.69,416.71c12.83,4.64,6.44,10.07,9.32,18.87c2.24,6.85,11.4,11.91,11.81,21.99s-3.5,19.22,0.3,29.81    c5.22,14.53,15.61,19.75,27.62,17.49c13.45-2.52,26.34-15.48,17.06-31.94c-6.24-11.07-12.67-7.13-13.89-21.91    c-1.09-13.26,1.46-18.71-11.03-26.16c-12.53-7.47-9.62-18.89-21.1-25.79C1230.3,385.58,1220.78,412.39,1232.69,416.71z"></path>
	</g>
	<g>
		<g>
			<g>
				<g>
					<path class="st10" d="M1006.62,473.37l0.12,4.5c0,0,29.04,29.75,32.67,34.96c3.82,5.55,5.38,11.99,12.01,16.97       c8.26,6.2,9.45,0.38,7.42-3.37c-2.7-4.97-5.28-7.69-0.58-10.24c1.98-1.08-2.39-5.36-8.45-5.02       c-4.67,0.27-15.62-17.26-18.94-22.41c-3.32-5.15-12.97-21.41-12.97-21.41l-7.83-0.49L1006.62,473.37z"></path>
				</g>
				<g>
					<polygon class="st9" points="1006.74,477.87 995.17,465.84 995.13,460.93 1006.39,452.15 1009.38,453.65 1017.89,467.35             "></polygon>
				</g>
				<polygon class="st2" points="994.19,411.27 1009.38,453.65 995.17,465.84 980.16,436.48     "></polygon>
			</g>
		</g>
		<g>
			<g>
				<g>
					<path class="st2" d="M931.2,727.49c0,0,2.65,3.6,8.24,7.41c5.65,3.85,7.2,6.63,5.8,8.98c-1.39,2.35-7.49,1.19-11.42-0.24       c-3.34-1.22-10.03-4.96-12.63-7.42c-2.77-2.62-3.41-4.83-3.06-7.06c0.43-2.75,2.3-3.84,2.3-3.84l3.87-0.39l5.17,0.85       L931.2,727.49z"></path>
					<path class="st1" d="M932.63,720.75l-1.43,6.74c0,0-1.99,1.19-5.95,0.22c-4.33-1.06-4.82-2.39-4.82-2.39l1.29-5.92       L932.63,720.75z"></path>
				</g>
				<g>
					<path class="st2" d="M991.58,726.09c0,0,9.68,4.02,12.82,5.34c3.14,1.32,11.7,4.93,14.76,6.48c5.08,2.57,4.25,6.45-1.13,5.74       c-6.76-0.89-24.61-4.57-29.06-6.06c-4.46-1.49-9.34-2.77-10.23-5.77c-0.89-2.99,0.72-5.7,2.31-6.3       C982.21,725.07,991.58,726.09,991.58,726.09z"></path>
					<path class="st1" d="M991.84,720.77l-0.25,5.32c0,0-0.94,1.78-5.1,1.57c-3.92-0.2-5.43-2.15-5.43-2.15l0.3-6.35L991.84,720.77z       "></path>
				</g>
			</g>
			<g>
				<polygon class="st1" points="965.85,363.58 942.6,369.97 941.92,505.57 995.32,500.27 983.66,381.69 975.1,364.02     "></polygon>
				<path class="st9" d="M993.38,483.96c0,0-21.67,17.23-73.24,10.01c0.36,46.28,3.11,61.35,7.77,90.25      c2.57,15.88,5.44,25.91,2.02,58.95c-3.36,32.44-9.86,71.66-10.28,74.26c-0.43,2.6,1,4.49,5.11,4.87      c4.51,0.42,10.04,2.59,13.89-6.38c3.63-8.47,8.18-22.84,10.72-30.68c2.79-8.66,14.55-45.59,17.79-56.6      c3.24-11.01,9.86-38.99,9.01-52.92c7,19.42,5.27,52.62,5.4,73.44c0.08,12.06-1.77,62.62-1.79,66.25s-0.38,6.94,4.28,7.31      c4.66,0.37,9.33,1.64,11.3-4.91c1.85-6.13,8.63-48.03,10.9-60.9c2.27-12.87,5.34-34.47,6.58-46.32      c1.66-15.77-0.52-52.54-6.3-76.81C1003.1,519.41,993.38,483.96,993.38,483.96z"></path>
			</g>
		</g>
		<g>
			<g>
				<path class="st2" d="M958.85,378.62c0,0-9.16,103.31-4.65,177.58c-14.18-2.28-39.33-10.73-49.06-17.63      c-9.53-6.76-12.69-21.64-7.81-76.93c4.37-49.49,18.74-75.21,27.94-83.81c10-9.36,20.44-15.2,20.44-15.2l4.91,13.92      L958.85,378.62z"></path>
				<path class="st2" d="M981.69,371.83c0,0,14.26,10.28,14.6,32.63c0.34,22.35-2.4,52.5,5.19,79.88      c5.4,19.48,10.19,33.46,12.69,40.35c1.24,3.43,0.67,7.28-1.59,10.14c-2.33,2.95-5.88,6.46-10.74,8.63      c-2.26-5.44-13.24-32.09-18.94-57.54c-3.15-14.08-3.19-52.87-2.83-67.34c0.65-26.38-5.02-44.61-5.02-44.61l0.25-5.32      L981.69,371.83z"></path>
				<path class="st17" d="M896.27,474.77c-2,27.5-1.48,42.99,1.26,52.27l20.6-58.08L896.27,474.77z"></path>
			</g>
			<g>
				<path class="st9" d="M1002.88,489.3l-4.87,6.8c0,0,4.37,3.82,5.92,3.55c1.9-0.33,3.26-3.92,3.33-5.58      C1007.35,492.11,1002.88,489.3,1002.88,489.3z"></path>
				<path class="st9" d="M943.8,502.07c0,0,0.47,7.11-0.92,7.4c-1.77,0.37-24.62-3.74-27.28-5.73c-1.15-0.86,0.42-7.26,0.42-7.26      L943.8,502.07z"></path>
			</g>
			<g>
				<path class="st9" d="M948.83,360.51c0,0-4.27-0.58-5.82,3.39c-1.39,3.58,6.15,14.98,8.01,16.08c2.47,0.67,5.79-0.13,7.83-1.36      C950.76,372.07,948.83,360.51,948.83,360.51z"></path>
				<path class="st9" d="M970.39,357.76c0,0,8.49,7.55,11.3,14.07c-2.6,1.84-6.64,2.15-6.64,2.15s-1.9-4.42-6.09-7.33      C966.63,360.6,970.39,357.76,970.39,357.76z"></path>
			</g>
		</g>
		<g>
			<path class="st9" d="M949.83,352.15c-6.71-7.06-7.88-16.53-1.66-24.33c6.95-8.72,16.91-8.55,22.63-6.27     c6.26,2.5,10.35,10.92,6.8,19.84C971.21,357.5,956.31,358.98,949.83,352.15z"></path>
			<path class="st10" d="M976,329.76c0,0-12.11-1.81-13.63,4.76c-1.16,5.02-0.09,9.36-0.09,9.36s-4.05-1.08-4.78,1.56     c-0.7,2.54,0.88,4.67,5.07,5.57c-0.88,2.5-2.95,6.47-8.4,4.04c-1.76,3.22-5.34,5.47-5.34,5.47s-0.78,10.07,7.53,13.04     c8.31,2.96,13.6-0.41,15.52-2.73c-0.38-4.7-0.14-12.98-0.14-12.98s8.28,0.39,10.57-2.18C985.94,351.54,981.35,335.19,976,329.76z     "></path>
		</g>
		<g>
			<g>
				<g>
					<path class="st10" d="M908.5,478.71l0.82,4.43c0,0-22.21,35.14-24.68,40.99c-2.59,6.22-2.76,12.85-8.22,19.1       c-6.79,7.79-9.17,2.34-7.96-1.75c1.6-5.42,3.56-8.62-1.56-10.14c-2.16-0.64,1.22-5.74,7.23-6.67       c4.62-0.71,11.69-20.13,13.86-25.86c2.17-5.73,8.23-23.65,8.23-23.65l7.56-2.11L908.5,478.71z"></path>
				</g>
				<g>
					<polygon class="st9" points="909.32,483.14 918.13,468.97 917.15,464.15 904.31,457.9 901.69,459.99 896.23,475.17      "></polygon>
				</g>
				<polygon class="st2" points="905.77,429.91 901.69,459.99 918.13,468.97 926.7,437.12     "></polygon>
			</g>
		</g>
	</g>
</g>
</svg>